<?xml version="1.0" encoding="utf-8"?>
<!-- Generator: Adobe Illustrator 23.0.1, SVG Export Plug-In . SVG Version: 6.00 Build 0)  -->
<svg version="1.1" id="图层_1" xmlns="http://www.w3.org/2000/svg" xmlns:xlink="http://www.w3.org/1999/xlink" x="0px" y="0px"
	 viewBox="0 0 1000 1000" style="enable-background:new 0 0 1000 1000;" xml:space="preserve">
<style type="text/css">
	.st0{fill:#EFEEEE;}
	.st1{fill-rule:evenodd;clip-rule:evenodd;fill:#1697C7;}
</style>
<rect x="0.12" class="st0" width="1000" height="1000"/>
<path class="st1" d="M880.1,807.03c-20.79,0-40.77,0.12-60.78-0.19c-1.68-0.05-4.61-2.86-4.78-4.59
	c-3.05-31.2-5.72-62.44-8.56-93.66c-2.65-29.02-5.39-58.04-8.09-87.06c-2.77-29.87-5.51-59.77-8.28-89.66
	c-0.17-1.73-0.47-3.43-0.88-6.05c7.38-0.83,14.55-2.29,21.69-2.29c19.42-0.02,38.81,0.5,58.2,0.95c4.99,0.12,7.14,3.43,7.43,7.92
	c0.61,9.34,1.49,18.68,1.54,28.03c0.17,44.04-0.19,88.08,0.21,132.14c0.33,35.17,1.51,70.34,2.29,105.51
	C880.15,800.27,880.1,802.49,880.1,807.03z M874.61,491.03c-13.24-0.61-25.9-1.21-40.14-1.87c0-34.77,0-69.58,0-105.13
	c10.29,0,21.24-0.12,32.14,0.07c5.49,0.09,8.28,2.22,8.18,8.66c-0.4,30.46-0.19,60.95-0.19,91.41
	C874.61,486.14,874.61,488.1,874.61,491.03z M781.38,384.37c10.88,0,21.76,0.19,32.59-0.07c4.94-0.14,6.72,0.88,6.55,6.34
	c-0.4,14.64,0.19,29.3,0.24,43.97c0.07,18.16,0.02,36.33,0.02,54.4c-10.97,1.09-20.67,2.06-31.01,3.1
	C787.03,456.81,784.27,421.48,781.38,384.37z M764.82,773.07c-18.76-1.73-37.53-3.07-57.76-4.66
	c-17.27-170.62-31.91-343.17-65.44-514.71c10.88-1.23,21.81-2.7,32.78-3.67c12.72-1.09,25.5-1.56,38.22-2.63
	c10.57-0.88,14.59,1.89,15.3,12.01c1.94,27.1,3.62,54.23,5.51,81.36c2.58,36.66,5.25,73.34,7.9,110
	c1.92,26.44,3.64,52.91,5.84,79.32c2.37,28.83,5.18,57.64,7.8,86.47c1.94,21.29,3.74,42.6,5.87,63.86
	c2.29,23.01,4.9,46.02,7.36,69.04c0.69,6.6,1.44,13.22,1.89,19.84C770.36,772.95,768.35,773.4,764.82,773.07z M652.08,637.64
	c2.32,21.45,4.64,42.9,7.24,64.33c2.77,22.96,5.91,45.88,8.85,68.8c0.88,6.81,1.61,13.6,2.46,20.95
	c-21.55,2.7-42.62,5.32-64.76,8.06c-18.59-92.78-36.99-184.76-55.77-278.46c15.21-2.1,29.99-4.45,44.82-6.15
	c10.64-1.21,21.4-1.32,32.07-2.32c5.79-0.54,9.48,1.49,10.41,7c2.44,14.69,4.97,29.35,6.74,44.13
	C647.09,588.5,649.41,613.1,652.08,637.64z M578.83,373.65c12.04-0.19,24.05-0.5,36.04-0.47c3.93,0,5.75,2.18,6.15,6.39
	c3.17,32.76,6.6,65.51,10.08,99.48c-12.49,0.78-25.26,1.61-38.31,2.44C588.13,445.46,583.57,410.29,578.83,373.65z M527.75,383.8
	c11.68-1.7,23.3-3.57,34.93-5.04c5.16-0.66,4.19,3.76,4.52,6.53c1.37,11.71,2.48,23.44,3.76,35.15c1.99,18.35,4.04,36.71,6.01,55.06
	c0.26,2.41,0.02,4.87,0.02,7.5c-9.91,1.92-19.63,3.83-29.75,5.79C540.76,453.9,534.32,419.23,527.75,383.8z M558.31,718.22
	c-5.32,15.75-16.13,27.67-29.78,38.05c-32.05,24.38-65.63,46.36-104.25,58.82c-27.06,8.73-55.15,15.35-83.32,19.58
	c-37.06,5.58-74.64,8.06-112.03,11.54c-7.66,0.71-15.49-0.31-23.25-0.28c-3.97,0.02-4.99-1.94-5.18-5.37
	c-0.99-16.67-1.82-33.37-3.31-50.02c-1.92-21.5-4.16-42.95-6.67-64.38c-3.5-29.82-7.38-59.62-11.14-89.4
	c-3.97-31.34-8.06-62.65-11.99-93.99c-3.86-30.68-7.31-61.42-11.38-92.07c-4.64-35.03-9.72-70.01-14.64-105.03
	c-5.84-41.39-13.69-82.38-24.64-122.8c-0.5-1.77,1.02-5.56,2.53-6.15c36.26-14.29,72.68-28.14,108.96-42.31
	c12.09-4.73,13.15-6.08,13.15,8.68c0.09,63.38,0.4,126.79,1.37,190.18c0.5,32.99,1.77,66.01,4.09,98.93
	c2.84,40.18,7.17,80.25,10.9,120.38c0.17,1.7,0.92,3.36,1.23,4.38c14.52-0.61,27.93-1.47,41.37-1.7
	c57.9-0.95,114.61,5.79,168.68,27.03c26.39,10.36,51.98,22.33,74.95,39.26C562.82,675.44,566.94,692.68,558.31,718.22z
	 M314.87,662.5c5.49,39.24,10.93,78.17,16.56,118.4c33.56-24.76,66.48-49.08,99.4-73.36C426.67,701.83,336.18,667.11,314.87,662.5z"
	/>
</svg>
