<?xml version="1.0" encoding="utf-8"?>
<!-- Generator: Adobe Illustrator 23.0.1, SVG Export Plug-In . SVG Version: 6.00 Build 0)  -->
<svg version="1.1" id="图层_1" xmlns="http://www.w3.org/2000/svg" xmlns:xlink="http://www.w3.org/1999/xlink" x="0px" y="0px"
	 viewBox="0 0 1000 1000" style="enable-background:new 0 0 1000 1000;" xml:space="preserve">
<style type="text/css">
	.st0{fill:#1697C7;}
	.st1{fill-rule:evenodd;clip-rule:evenodd;fill:#FFFFFF;}
</style>
<rect x="0.09" class="st0" width="1000" height="1000"/>
<path class="st1" d="M743,265.07c-51.2-43.85-122.87-69.15-206.2-69.15c-217.15,0-364.85,164.28-364.85,164.28l41.63,64.76
	c0,0,23.02,1.89,10.83-36.24c10.52-19.5,37.76-54.07,78-84.37c0,0,0,412.59,0,434.78c-17.35,4.8-46.91,18.72-31.28,34.04
	c26.7,0,99.74,0,119.57,0c15.78-15.48-7.91-29.7-23.07-34.04c0-16.65,0-86.96,0-86.96s80.8,21.65,169.17,21.65
	c77.65,0,148.28-22.65,200.83-63.57c52.54-40.65,86.41-101.39,86.22-170.8C824,371.3,794.24,308.76,743,265.07z M679.63,576.22
	c-36.33,35.17-89.17,57.41-150.13,57.37c-68,0.04-125.24-12.87-163.02-31.11c0,0,1.15-20.96,1.15-102.48
	c0-88.2-1.15-221.15-1.15-221.15c41.46-28.89,108.72-46.7,163.02-46.57c66,0.04,117.83,24.48,152.85,61.59
	c34.98,37.3,54.67,83.28,54.85,140.91C736.98,490.93,715.98,540.76,679.63,576.22z"/>
</svg>
