<?xml version="1.0" encoding="utf-8"?>
<!-- Generator: Adobe Illustrator 23.0.1, SVG Export Plug-In . SVG Version: 6.00 Build 0)  -->
<svg version="1.1" id="图层_1" xmlns="http://www.w3.org/2000/svg" xmlns:xlink="http://www.w3.org/1999/xlink" x="0px" y="0px"
	 viewBox="0 0 1000 1000" style="enable-background:new 0 0 1000 1000;" xml:space="preserve">
<style type="text/css">
	.st0{fill:#F4DB24;}
	.st1{fill-rule:evenodd;clip-rule:evenodd;fill:#040000;}
</style>
<rect x="0.09" class="st0" width="1000" height="1000"/>
<path class="st1" d="M699.93,236.51c-2.56,9.68-4.41,14.71-5.07,18.1l20.35-0.88c8.64-5.07,17.46-10.69,20-11
	c5-0.6-2.95,19.2-5.62,20.68c-0.35,0.2-2.27,0.97-4.83,2.14l-14.77,66.87h132.29l-22.05,88.19H687.94l-4.01,69.08l130.92-8.84
	l-49.81,336.39H468.76L485.96,712L158.72,817.23v-115.2l61.78-13.82l42.29-239.62h-56.38l17.35-91.01l111.41-3.11l14.33-90.2h35.14
	c2.01-1.61,3.9-3.26,5.51-5c5.78-6.24,14.22-17.7,26.44-31.4c10.01-11.24,51-24.52,56.05-24.61c3.66-0.04-20.39,22.84-21.81,23.97
	c-1.01,0.79-23.19,8.49-34.68,32.87c-0.82,1.72-1.32,2.69-2.05,4.17h37.31l-0.37,1.26c4.01-0.31-1.9,13.21-6.37,20.42l-21.3,68.52
	l132.29-22.05l-26.92,98.77l-44.16,9.72L455.6,595.89l-89.76,28.57l40.04-185.09L343,443.98l-34.68,225.79l179.96-55.3v83.32
	l34.68-212.34H601l30.36-228.09l14.38-0.64l-4.17-2.51c0,0,21.06-8.6,29.13-19.69c4.61-6.35,10.76-18.52,21.03-33.62
	c8.84-12.96,53.11-23.86,58.49-23.13c3.81,0.53-18.83,25.07-20.15,26.24C729.15,204.81,706.61,211.4,699.93,236.51z M604.27,559.18
	l-27.1,147.46l-4.21,32.06h103.56l36.56-179.51H604.27z"/>
</svg>
